<svg width="36" height="36" viewBox="0 0 36 36" fill="none" xmlns="http://www.w3.org/2000/svg">
<path fill-rule="evenodd" clip-rule="evenodd" d="M11.8125 1.5H24.1875C29.8821 1.5 34.5 6.11794 34.5 11.8125V24.1875C34.5 29.8821 29.8821 34.5 24.1875 34.5H11.8125C6.11794 34.5 1.5 29.8821 1.5 24.1875V11.8125C1.5 6.11794 6.11794 1.5 11.8125 1.5ZM24.1875 31.4062C28.1681 31.4062 31.4062 28.1681 31.4062 24.1875V11.8125C31.4062 7.83187 28.1681 4.59375 24.1875 4.59375H11.8125C7.83187 4.59375 4.59375 7.83187 4.59375 11.8125V24.1875C4.59375 28.1681 7.83187 31.4062 11.8125 31.4062H24.1875Z" fill="white"/>
<path fill-rule="evenodd" clip-rule="evenodd" d="M9.75 18C9.75 13.4439 13.4439 9.75 18 9.75C22.5561 9.75 26.25 13.4439 26.25 18C26.25 22.5561 22.5561 26.25 18 26.25C13.4439 26.25 9.75 22.5561 9.75 18ZM12.8438 18C12.8438 20.8421 15.1579 23.1562 18 23.1562C20.8421 23.1562 23.1562 20.8421 23.1562 18C23.1562 15.1558 20.8421 12.8438 18 12.8438C15.1579 12.8438 12.8438 15.1558 12.8438 18Z" fill="white"/>
<circle cx="26.8688" cy="9.13142" r="1.09931" fill="white"/>
</svg>
