<svg width="36" height="36" viewBox="0 0 36 36" fill="none" xmlns="http://www.w3.org/2000/svg">
<path d="M34.5 7.67419C33.2728 8.2125 31.9652 8.56931 30.6019 8.74256C32.0044 7.90519 33.0748 6.58931 33.5781 5.00325C32.2704 5.78288 30.8267 6.33356 29.2881 6.64088C28.0464 5.31881 26.2768 4.5 24.3463 4.5C20.6008 4.5 17.5854 7.54012 17.5854 11.2671C17.5854 11.8033 17.6308 12.3189 17.7422 12.8098C12.1178 12.5355 7.14094 9.83981 3.79763 5.73338C3.21394 6.74606 2.87156 7.90519 2.87156 9.153C2.87156 11.496 4.07812 13.5729 5.87663 14.7754C4.78969 14.7547 3.72337 14.4392 2.82 13.9421C2.82 13.9628 2.82 13.9896 2.82 14.0164C2.82 17.304 5.16506 20.0347 8.24025 20.6638C7.68956 20.8144 7.08938 20.8866 6.4665 20.8866C6.03338 20.8866 5.59613 20.8618 5.18569 20.7711C6.06225 23.4503 8.54963 25.4199 11.5072 25.4839C9.2055 27.2844 6.28294 28.3693 3.11906 28.3693C2.56425 28.3693 2.03212 28.3446 1.5 28.2765C4.49681 30.2091 8.04844 31.3125 11.8785 31.3125C24.3278 31.3125 31.134 21 31.134 12.0611C31.134 11.7621 31.1237 11.4733 31.1092 11.1866C32.4519 10.2337 33.5801 9.04369 34.5 7.67419Z" fill="white"/>
</svg>
